<svg width="1280" height="800" viewBox="0 0 1280 800" fill="none" xmlns="http://www.w3.org/2000/svg">
<g clip-path="url(#clip0_1_22)">
<path d="M1280 0H0V800H1280V0Z" fill="#13125B"/>
<g filter="url(#filter0_f_1_22)">
<path d="M257 991C429.313 991 569 851.313 569 679C569 506.687 429.313 367 257 367C84.6872 367 -55 506.687 -55 679C-55 851.313 84.6872 991 257 991Z" fill="#367FFF"/>
</g>
<g filter="url(#filter1_f_1_22)">
<path d="M1178 709C1285.7 709 1373 621.696 1373 514C1373 406.304 1285.7 319 1178 319C1070.3 319 983 406.304 983 514C983 621.696 1070.3 709 1178 709Z" fill="#367FFF"/>
</g>
<g filter="url(#filter2_f_1_22)">
<path d="M419 170C526.696 170 614 82.6955 614 -25C614 -132.696 526.696 -220 419 -220C311.304 -220 224 -132.696 224 -25C224 82.6955 311.304 170 419 170Z" fill="#367FFF"/>
</g>
</g>
<defs>
<filter id="filter0_f_1_22" x="-185" y="237" width="884" height="884" filterUnits="userSpaceOnUse" color-interpolation-filters="sRGB">
<feFlood flood-opacity="0" result="BackgroundImageFix"/>
<feBlend mode="normal" in="SourceGraphic" in2="BackgroundImageFix" result="shape"/>
<feGaussianBlur stdDeviation="65" result="effect1_foregroundBlur_1_22"/>
</filter>
<filter id="filter1_f_1_22" x="854" y="190" width="648" height="648" filterUnits="userSpaceOnUse" color-interpolation-filters="sRGB">
<feFlood flood-opacity="0" result="BackgroundImageFix"/>
<feBlend mode="normal" in="SourceGraphic" in2="BackgroundImageFix" result="shape"/>
<feGaussianBlur stdDeviation="64.5" result="effect1_foregroundBlur_1_22"/>
</filter>
<filter id="filter2_f_1_22" x="94" y="-350" width="650" height="650" filterUnits="userSpaceOnUse" color-interpolation-filters="sRGB">
<feFlood flood-opacity="0" result="BackgroundImageFix"/>
<feBlend mode="normal" in="SourceGraphic" in2="BackgroundImageFix" result="shape"/>
<feGaussianBlur stdDeviation="65" result="effect1_foregroundBlur_1_22"/>
</filter>
<clipPath id="clip0_1_22">
<rect width="1280" height="800" fill="white"/>
</clipPath>
</defs>
</svg>
