<?xml version="1.0" encoding="UTF-8"?>
<svg xmlns="http://www.w3.org/2000/svg" xmlns:xlink="http://www.w3.org/1999/xlink" viewBox="0 0 2296.79 429.06">
  <defs>
    <style>
      .cls-1 {
        fill: url(#Dégradé_sans_nom_71-6);
      }

      .cls-2 {
        fill: url(#Dégradé_sans_nom_71-8);
        opacity: .99;
      }

      .cls-3 {
        fill: #fff;
      }

      .cls-4 {
        fill: url(#Dégradé_sans_nom_71-7);
      }

      .cls-5 {
        fill: url(#Dégradé_sans_nom_71);
      }

      .cls-6 {
        fill: url(#Dégradé_sans_nom_71-4);
      }

      .cls-7 {
        fill: #13125b;
      }

      .cls-8 {
        fill: url(#Dégradé_sans_nom_71-2);
      }

      .cls-9 {
        fill: url(#Dégradé_sans_nom_71-5);
      }

      .cls-10 {
        fill: url(#Dégradé_sans_nom_71-3);
      }
    </style>
    <linearGradient id="Dégradé_sans_nom_71" data-name="Dégradé sans nom 71" x1="1547.23" y1="76.49" x2="1588.5" y2="331.47" gradientUnits="userSpaceOnUse">
      <stop offset=".04" stop-color="#367fff"/>
      <stop offset=".24" stop-color="#3088ff"/>
      <stop offset=".57" stop-color="#23a1ff"/>
      <stop offset=".98" stop-color="#0dcaff"/>
      <stop offset=".99" stop-color="#0dccff"/>
    </linearGradient>
    <linearGradient id="Dégradé_sans_nom_71-2" data-name="Dégradé sans nom 71" x1="1610.47" y1="66.25" x2="1651.75" y2="321.23" xlink:href="#Dégradé_sans_nom_71"/>
    <linearGradient id="Dégradé_sans_nom_71-3" data-name="Dégradé sans nom 71" x1="1635.48" y1="62.2" x2="1676.75" y2="317.18" xlink:href="#Dégradé_sans_nom_71"/>
    <linearGradient id="Dégradé_sans_nom_71-4" data-name="Dégradé sans nom 71" x1="1729.49" y1="46.99" x2="1770.77" y2="301.97" xlink:href="#Dégradé_sans_nom_71"/>
    <linearGradient id="Dégradé_sans_nom_71-5" data-name="Dégradé sans nom 71" x1="1906.32" y1="18.36" x2="1947.59" y2="273.34" xlink:href="#Dégradé_sans_nom_71"/>
    <linearGradient id="Dégradé_sans_nom_71-6" data-name="Dégradé sans nom 71" x1="2064.84" y1="-7.3" x2="2106.11" y2="247.68" xlink:href="#Dégradé_sans_nom_71"/>
    <linearGradient id="Dégradé_sans_nom_71-7" data-name="Dégradé sans nom 71" x1="2214.69" y1="-31.55" x2="2255.97" y2="223.43" xlink:href="#Dégradé_sans_nom_71"/>
    <linearGradient id="Dégradé_sans_nom_71-8" data-name="Dégradé sans nom 71" x1="44.23" y1="32.97" x2="276.63" y2="336.37" xlink:href="#Dégradé_sans_nom_71"/>
  </defs>
  <g id="Calque_4" data-name="Calque 4">
    <g id="ticket">
      <path class="cls-5" d="m1572.56,88.62h-31.81v63.57h-29.46v25.74h29.46v138.06c0,26,14.92,39,44.77,39,8.38,0,16.89-.91,25.53-2.73v-27.3h-1.18c-5.5,1.82-11.13,2.73-16.89,2.73-13.62,0-20.42-6.24-20.42-18.72v-131.04h39.28v-25.74h-39.28v-63.57Z"/>
      <rect class="cls-8" x="1624.8" y="152.19" width="31.81" height="201.63"/>
      <rect class="cls-10" x="1624.8" y="74.97" width="31.81" height="39"/>
      <path class="cls-6" d="m1766.58,173.25c15.18,0,27.49,3.9,36.92,11.7,9.43,7.8,15.32,18.59,17.67,32.37h32.21c-3.67-21.58-13.1-38.67-28.28-51.29-15.19-12.61-34.7-18.92-58.52-18.92-29.59,0-53.35,10.14-71.29,30.42-17.94,20.28-26.9,45.5-26.9,75.66s8.97,55.38,26.9,75.66c17.93,20.28,41.69,30.42,71.29,30.42,25.39,0,45.69-6.69,60.88-20.08,15.18-13.39,23.82-32.17,25.92-56.36h-31.42c-1.31,15.86-6.81,28.15-16.5,36.86-9.69,8.71-22.65,13.07-38.88,13.07-20.95,0-37.12-7.47-48.5-22.43-11.39-14.95-17.08-33.99-17.08-57.13s5.69-42.25,17.08-57.33c11.39-15.08,27.55-22.62,48.5-22.62Z"/>
      <polygon class="cls-9" points="2025.01 152.19 1984.55 152.19 1895.4 238.38 1895.4 74.97 1863.59 74.97 1863.59 353.82 1895.4 353.82 1895.4 273.09 1925.25 245.01 1997.12 353.82 2034.43 353.82 1947.24 224.73 2025.01 152.19"/>
      <path class="cls-1" d="m2177.79,178.12c-16.24-20.67-39.28-31.01-69.12-31.01-28.28,0-51.39,10.21-69.32,30.62-17.94,20.41-26.9,45.57-26.9,75.46s8.84,55.71,26.51,75.86c17.67,20.15,41.56,30.22,71.68,30.22,23.04,0,42.15-5.91,57.34-17.75,15.18-11.83,25.14-28.53,29.85-50.12h-31.03c-7.07,27.56-25.79,41.34-56.16,41.34-19.64,0-35.15-6.69-46.54-20.08-11.39-13.39-17.74-30.74-19.05-52.07h157.1c0-34.32-8.12-61.81-24.35-82.48Zm-131.97,58.69c2.61-19.24,9.23-34.84,19.83-46.8,10.6-11.96,24.94-17.94,43.01-17.94s32.21,5.72,42.42,17.16c10.21,11.44,15.84,27.3,16.89,47.58h-122.15Z"/>
      <path class="cls-4" d="m2296.79,177.93v-25.74h-39.28v-63.57h-31.81v63.57h-29.46v25.74h29.46v138.06c0,26,14.92,39,44.77,39,8.38,0,16.89-.91,25.53-2.73v-27.3h-1.18c-5.5,1.82-11.13,2.73-16.89,2.73-13.62,0-20.42-6.24-20.42-18.72v-131.04h39.28Z"/>
    </g>
  </g>
  <g id="Calque_6" data-name="Calque 6">
    <g id="authen_bleu" data-name="authen bleu">
      <path class="cls-7" d="m658.63,347.77c-20.17,0-31.81-10.01-34.96-30.03h-.39c-16.76,21.32-39.28,31.98-67.55,31.98-20.17,0-36.66-4.81-49.49-14.43-12.83-9.62-19.25-23.53-19.25-41.73,0-9.36,1.5-17.48,4.52-24.38,3.01-6.89,6.87-12.48,11.59-16.77,4.71-4.29,11.19-8.06,19.44-11.31,8.25-3.25,16.16-5.72,23.76-7.41,7.59-1.69,17.28-3.44,29.06-5.27,7.59-1.04,13.02-1.88,16.3-2.53,3.27-.65,7.52-1.69,12.76-3.12,5.24-1.43,8.9-3.05,11-4.88,2.09-1.82,4.06-4.29,5.89-7.41,1.83-3.12,2.75-6.76,2.75-10.92,0-11.44-3.99-20.21-11.98-26.33-7.99-6.11-19.18-9.17-33.58-9.17-32.73,0-49.62,14.82-50.67,44.46h-30.63c.52-20.54,7.66-37.05,21.41-49.53s33.58-18.72,59.5-18.72c50.01,0,75.02,21.32,75.02,63.96v95.94c0,8.84,1.5,15.08,4.52,18.72,3.01,3.64,8.7,4.55,17.08,2.73h1.18v23.01c-5.24,2.08-11,3.12-17.28,3.12Zm-95.83-22.23c19.64,0,34.82-5.65,45.56-16.96,10.73-11.31,16.1-23.72,16.1-37.25v-34.32c-9.69,5.98-25.14,10.92-46.35,14.82-7.85,1.56-14.01,2.8-18.46,3.71-4.46.91-9.56,2.47-15.32,4.68-5.76,2.21-10.08,4.62-12.96,7.22-2.88,2.6-5.37,6.04-7.46,10.33-2.1,4.29-3.14,9.3-3.14,15.01,0,21.84,14,32.76,42.02,32.76Z"/>
      <path class="cls-7" d="m840.48,345.82h-31.81v-27.69h-.79c-15.97,21.58-36.4,32.37-61.27,32.37-20.95,0-37.58-5.91-49.88-17.75-12.31-11.83-18.46-28.14-18.46-48.94v-139.62h31.81v138.84c0,13,3.99,23.14,11.98,30.42,7.98,7.28,19.18,10.92,33.58,10.92,15.97,0,28.8-5.33,38.49-15.99,9.68-10.66,14.53-24.05,14.53-40.17v-124.02h31.81v201.63Z"/>
      <path class="cls-7" d="m850.68,169.93v-25.74h29.46v-63.57h31.81v63.57h39.28v25.74h-39.28v131.04c0,12.48,6.81,18.72,20.42,18.72,5.76,0,11.39-.91,16.89-2.73h1.18v27.3c-8.64,1.82-17.15,2.73-25.53,2.73-29.85,0-44.77-13-44.77-39v-138.06h-29.46Z"/>
      <path class="cls-7" d="m996,66.97v103.74h.79c15.71-20.8,37.18-31.2,64.41-31.2,21.47,0,38.23,5.59,50.27,16.77,12.04,11.18,18.07,27.17,18.07,47.97v141.57h-31.81v-138.84c0-13-4.06-23.07-12.17-30.23-8.12-7.15-19.38-10.73-33.78-10.73-16.24,0-29.59,5.2-40.06,15.6-10.48,10.4-15.71,23.79-15.71,40.17v124.02h-31.81V66.97h31.81Z"/>
      <path class="cls-7" d="m1238.33,351.28c-30.11,0-54-10.07-71.68-30.22-17.67-20.15-26.51-45.44-26.51-75.86s8.97-55.05,26.9-75.46c17.93-20.41,41.04-30.62,69.32-30.62,29.85,0,52.89,10.33,69.12,31.01,16.23,20.67,24.35,48.17,24.35,82.48h-157.1c1.31,21.32,7.66,38.68,19.05,52.07,11.39,13.39,26.9,20.08,46.54,20.08,30.37,0,49.09-13.78,56.16-41.34h31.03c-4.71,21.58-14.67,38.29-29.85,50.12-15.19,11.83-34.3,17.75-57.34,17.75Zm40.45-170.04c-10.21-11.44-24.35-17.16-42.42-17.16s-32.4,5.98-43.01,17.94c-10.6,11.96-17.22,27.56-19.83,46.8h122.15c-1.05-20.28-6.68-36.14-16.89-47.58Z"/>
      <path class="cls-7" d="m1372.65,144.19v26.52h.79c15.71-20.8,37.18-31.2,64.41-31.2,21.47,0,38.23,5.59,50.27,16.77,12.04,11.18,18.07,27.17,18.07,47.97v141.57h-31.81v-138.84c0-13-4.06-23.07-12.17-30.23-8.12-7.15-19.38-10.73-33.78-10.73-16.24,0-29.59,5.2-40.06,15.6-10.48,10.4-15.71,23.79-15.71,40.17v124.02h-31.81v-201.63h31.81Z"/>
    </g>
  </g>
  <g id="Calque_10" data-name="Calque 10">
    <g>
      <path id="Ticket" class="cls-2" d="m322.07,0h-59.94c-8.7,0-16.16,6.32-18.47,15.29-6.31,24.49-20.58,39.53-62.46,39.53s-56.14-15.05-62.46-39.53c-2.31-8.96-9.78-15.29-18.47-15.29h-55.73C20.04,0,0,21.43,0,47.62v333.81c0,26.19,20.04,47.62,44.54,47.62h55.69c8.71,0,16.18-6.34,18.48-15.32,6.28-24.54,20.27-39.63,62.49-39.63s56.2,15.09,62.49,39.63c2.3,8.98,9.77,15.32,18.48,15.32h59.91c24.5,0,44.54-21.43,44.54-47.62V47.62c0-26.19-20.04-47.62-44.54-47.62Z"/>
      <g id="Etoile">
        <path class="cls-3" d="m193.09,120.37l26.4,53.62,58.5,8.52c9.17,1.34,12.83,12.63,6.19,19.11l-42.33,41.36,9.99,58.4c1.57,9.15-8.02,16.13-16.22,11.81l-52.32-27.57-52.32,27.57c-8.2,4.32-17.78-2.66-16.22-11.81l9.99-58.4-42.33-41.36c-6.63-6.48-2.97-17.77,6.19-19.11l58.36-8.5c.09-.01.16-.07.2-.15l26.34-53.49c2-4.06,5.89-5.82,9.78-5.82s7.78,1.75,9.78,5.82Z"/>
      </g>
    </g>
  </g>
</svg>